<svg xmlns="http://www.w3.org/2000/svg" viewBox="0 0 600 600"><path d="M330,82 L372,96 L440,128 L475,182 L470,238 L478,300 L466,360 L458,418 L412,450 L372,452 L312,498 L238,470 L168,458 L176,398 L150,338 L140,300 L96,236 L72,214 L118,196 L178,166 L238,128 L280,108 Z" fill="rgba(159,180,214,0.05)" stroke="#9fb4d6" stroke-width="1.4" stroke-opacity="0.55"/><line x1="328" y1="210" x2="330" y2="95" stroke="#9fb4d6" stroke-width="1" stroke-opacity="0.32" stroke-dasharray="1 5" stroke-linecap="round"/><line x1="328" y1="210" x2="468" y2="195" stroke="#9fb4d6" stroke-width="1" stroke-opacity="0.32" stroke-dasharray="1 5" stroke-linecap="round"/><line x1="328" y1="210" x2="408" y2="258" stroke="#9fb4d6" stroke-width="1" stroke-opacity="0.32" stroke-dasharray="1 5" stroke-linecap="round"/><line x1="408" y1="258" x2="400" y2="322" stroke="#9fb4d6" stroke-width="1" stroke-opacity="0.32" stroke-dasharray="1 5" stroke-linecap="round"/><line x1="328" y1="210" x2="400" y2="322" stroke="#9fb4d6" stroke-width="1" stroke-opacity="0.32" stroke-dasharray="1 5" stroke-linecap="round"/><line x1="400" y1="322" x2="398" y2="442" stroke="#9fb4d6" stroke-width="1" stroke-opacity="0.32" stroke-dasharray="1 5" stroke-linecap="round"/><line x1="398" y1="442" x2="458" y2="412" stroke="#9fb4d6" stroke-width="1" stroke-opacity="0.32" stroke-dasharray="1 5" stroke-linecap="round"/><line x1="398" y1="442" x2="292" y2="438" stroke="#9fb4d6" stroke-width="1" stroke-opacity="0.32" stroke-dasharray="1 5" stroke-linecap="round"/><line x1="292" y1="438" x2="212" y2="378" stroke="#9fb4d6" stroke-width="1" stroke-opacity="0.32" stroke-dasharray="1 5" stroke-linecap="round"/><line x1="212" y1="378" x2="185" y2="292" stroke="#9fb4d6" stroke-width="1" stroke-opacity="0.32" stroke-dasharray="1 5" stroke-linecap="round"/><line x1="185" y1="292" x2="175" y2="232" stroke="#9fb4d6" stroke-width="1" stroke-opacity="0.32" stroke-dasharray="1 5" stroke-linecap="round"/><line x1="175" y1="232" x2="95" y2="218" stroke="#9fb4d6" stroke-width="1" stroke-opacity="0.32" stroke-dasharray="1 5" stroke-linecap="round"/><line x1="328" y1="210" x2="175" y2="232" stroke="#9fb4d6" stroke-width="1" stroke-opacity="0.32" stroke-dasharray="1 5" stroke-linecap="round"/><line x1="328" y1="210" x2="185" y2="292" stroke="#9fb4d6" stroke-width="1" stroke-opacity="0.32" stroke-dasharray="1 5" stroke-linecap="round"/><line x1="328" y1="210" x2="212" y2="378" stroke="#9fb4d6" stroke-width="1" stroke-opacity="0.32" stroke-dasharray="1 5" stroke-linecap="round"/><line x1="400" y1="322" x2="292" y2="438" stroke="#9fb4d6" stroke-width="1" stroke-opacity="0.32" stroke-dasharray="1 5" stroke-linecap="round"/><line x1="400" y1="322" x2="330" y2="332" stroke="#9fb4d6" stroke-width="1" stroke-opacity="0.32" stroke-dasharray="1 5" stroke-linecap="round"/><line x1="328" y1="210" x2="330" y2="332" stroke="#9fb4d6" stroke-width="1" stroke-opacity="0.32" stroke-dasharray="1 5" stroke-linecap="round"/><line x1="292" y1="438" x2="312" y2="492" stroke="#9fb4d6" stroke-width="1" stroke-opacity="0.32" stroke-dasharray="1 5" stroke-linecap="round"/><line x1="212" y1="378" x2="178" y2="452" stroke="#9fb4d6" stroke-width="1" stroke-opacity="0.32" stroke-dasharray="1 5" stroke-linecap="round"/><line x1="328" y1="210" x2="258" y2="150" stroke="#9fb4d6" stroke-width="1" stroke-opacity="0.32" stroke-dasharray="1 5" stroke-linecap="round"/><line x1="258" y1="150" x2="175" y2="232" stroke="#9fb4d6" stroke-width="1" stroke-opacity="0.32" stroke-dasharray="1 5" stroke-linecap="round"/><line x1="330" y1="332" x2="212" y2="378" stroke="#9fb4d6" stroke-width="1" stroke-opacity="0.32" stroke-dasharray="1 5" stroke-linecap="round"/><line x1="468" y1="195" x2="408" y2="258" stroke="#9fb4d6" stroke-width="1" stroke-opacity="0.32" stroke-dasharray="1 5" stroke-linecap="round"/><line x1="458" y1="412" x2="400" y2="322" stroke="#9fb4d6" stroke-width="1" stroke-opacity="0.32" stroke-dasharray="1 5" stroke-linecap="round"/><line x1="312" y1="492" x2="398" y2="442" stroke="#9fb4d6" stroke-width="1" stroke-opacity="0.32" stroke-dasharray="1 5" stroke-linecap="round"/><circle cx="330" cy="95" r="2.6" fill="#9fb4d6" fill-opacity="0.7"/><circle cx="328" cy="210" r="2.6" fill="#9fb4d6" fill-opacity="0.7"/><circle cx="468" cy="195" r="2.6" fill="#9fb4d6" fill-opacity="0.7"/><circle cx="175" cy="232" r="2.6" fill="#9fb4d6" fill-opacity="0.7"/><circle cx="95" cy="218" r="2.6" fill="#9fb4d6" fill-opacity="0.7"/><circle cx="185" cy="292" r="2.6" fill="#9fb4d6" fill-opacity="0.7"/><circle cx="212" cy="378" r="2.6" fill="#9fb4d6" fill-opacity="0.7"/><circle cx="178" cy="452" r="2.6" fill="#9fb4d6" fill-opacity="0.7"/><circle cx="292" cy="438" r="2.6" fill="#9fb4d6" fill-opacity="0.7"/><circle cx="312" cy="492" r="2.6" fill="#9fb4d6" fill-opacity="0.7"/><circle cx="398" cy="442" r="2.6" fill="#9fb4d6" fill-opacity="0.7"/><circle cx="458" cy="412" r="2.6" fill="#9fb4d6" fill-opacity="0.7"/><circle cx="400" cy="322" r="2.6" fill="#9fb4d6" fill-opacity="0.7"/><circle cx="330" cy="332" r="2.6" fill="#9fb4d6" fill-opacity="0.7"/><circle cx="258" cy="150" r="2.6" fill="#9fb4d6" fill-opacity="0.7"/><circle cx="408" cy="258" r="2.6" fill="#9fb4d6" fill-opacity="0.7"/></svg>