<svg xmlns="http://www.w3.org/2000/svg" viewBox="0 0 1200 600"><line x1="738" y1="524" x2="811" y2="347" stroke="#9fb4d6" stroke-width="1" stroke-opacity="0.22"/><line x1="627" y1="488" x2="572" y2="382" stroke="#9fb4d6" stroke-width="1" stroke-opacity="0.22"/><line x1="1114" y1="73" x2="848" y2="194" stroke="#9fb4d6" stroke-width="1" stroke-opacity="0.22"/><line x1="123" y1="304" x2="135" y2="95" stroke="#9fb4d6" stroke-width="1" stroke-opacity="0.22"/><line x1="123" y1="304" x2="255" y2="341" stroke="#9fb4d6" stroke-width="1" stroke-opacity="0.22"/><line x1="126" y1="401" x2="85" y2="525" stroke="#9fb4d6" stroke-width="1" stroke-opacity="0.22"/><line x1="1089" y1="395" x2="1093" y2="274" stroke="#9fb4d6" stroke-width="1" stroke-opacity="0.22"/><line x1="518" y1="463" x2="627" y2="488" stroke="#9fb4d6" stroke-width="1" stroke-opacity="0.22"/><line x1="123" y1="304" x2="85" y2="525" stroke="#9fb4d6" stroke-width="1" stroke-opacity="0.22"/><line x1="135" y1="95" x2="90" y2="190" stroke="#9fb4d6" stroke-width="1" stroke-opacity="0.22"/><line x1="848" y1="194" x2="811" y2="347" stroke="#9fb4d6" stroke-width="1" stroke-opacity="0.22"/><line x1="410" y1="125" x2="549" y2="200" stroke="#9fb4d6" stroke-width="1" stroke-opacity="0.22"/><line x1="639" y1="233" x2="750" y2="236" stroke="#9fb4d6" stroke-width="1" stroke-opacity="0.22"/><line x1="85" y1="525" x2="240" y2="436" stroke="#9fb4d6" stroke-width="1" stroke-opacity="0.22"/><line x1="393" y1="458" x2="240" y2="436" stroke="#9fb4d6" stroke-width="1" stroke-opacity="0.22"/><line x1="639" y1="233" x2="549" y2="200" stroke="#9fb4d6" stroke-width="1" stroke-opacity="0.22"/><line x1="763" y1="86" x2="652" y2="81" stroke="#9fb4d6" stroke-width="1" stroke-opacity="0.22"/><line x1="750" y1="236" x2="848" y2="194" stroke="#9fb4d6" stroke-width="1" stroke-opacity="0.22"/><line x1="255" y1="341" x2="332" y2="224" stroke="#9fb4d6" stroke-width="1" stroke-opacity="0.22"/><line x1="639" y1="233" x2="572" y2="382" stroke="#9fb4d6" stroke-width="1" stroke-opacity="0.22"/><line x1="918" y1="399" x2="1089" y2="395" stroke="#9fb4d6" stroke-width="1" stroke-opacity="0.22"/><line x1="738" y1="524" x2="572" y2="382" stroke="#9fb4d6" stroke-width="1" stroke-opacity="0.22"/><line x1="1114" y1="73" x2="1093" y2="274" stroke="#9fb4d6" stroke-width="1" stroke-opacity="0.22"/><line x1="918" y1="399" x2="1072" y2="544" stroke="#9fb4d6" stroke-width="1" stroke-opacity="0.22"/><line x1="518" y1="463" x2="393" y2="458" stroke="#9fb4d6" stroke-width="1" stroke-opacity="0.22"/><line x1="123" y1="304" x2="126" y2="401" stroke="#9fb4d6" stroke-width="1" stroke-opacity="0.22"/><line x1="393" y1="458" x2="399" y2="343" stroke="#9fb4d6" stroke-width="1" stroke-opacity="0.22"/><line x1="123" y1="304" x2="90" y2="190" stroke="#9fb4d6" stroke-width="1" stroke-opacity="0.22"/><line x1="987" y1="195" x2="848" y2="194" stroke="#9fb4d6" stroke-width="1" stroke-opacity="0.22"/><line x1="967" y1="522" x2="1089" y2="395" stroke="#9fb4d6" stroke-width="1" stroke-opacity="0.22"/><line x1="763" y1="86" x2="750" y2="236" stroke="#9fb4d6" stroke-width="1" stroke-opacity="0.22"/><line x1="410" y1="125" x2="241" y2="109" stroke="#9fb4d6" stroke-width="1" stroke-opacity="0.22"/><line x1="967" y1="522" x2="1072" y2="544" stroke="#9fb4d6" stroke-width="1" stroke-opacity="0.22"/><line x1="763" y1="86" x2="848" y2="194" stroke="#9fb4d6" stroke-width="1" stroke-opacity="0.22"/><line x1="255" y1="341" x2="240" y2="436" stroke="#9fb4d6" stroke-width="1" stroke-opacity="0.22"/><line x1="918" y1="399" x2="967" y2="522" stroke="#9fb4d6" stroke-width="1" stroke-opacity="0.22"/><line x1="738" y1="524" x2="627" y2="488" stroke="#9fb4d6" stroke-width="1" stroke-opacity="0.22"/><line x1="652" y1="81" x2="549" y2="200" stroke="#9fb4d6" stroke-width="1" stroke-opacity="0.22"/><line x1="126" y1="401" x2="240" y2="436" stroke="#9fb4d6" stroke-width="1" stroke-opacity="0.22"/><line x1="241" y1="109" x2="90" y2="190" stroke="#9fb4d6" stroke-width="1" stroke-opacity="0.22"/><line x1="241" y1="109" x2="332" y2="224" stroke="#9fb4d6" stroke-width="1" stroke-opacity="0.22"/><line x1="135" y1="95" x2="241" y2="109" stroke="#9fb4d6" stroke-width="1" stroke-opacity="0.22"/><line x1="1089" y1="395" x2="1072" y2="544" stroke="#9fb4d6" stroke-width="1" stroke-opacity="0.22"/><line x1="255" y1="341" x2="399" y2="343" stroke="#9fb4d6" stroke-width="1" stroke-opacity="0.22"/><line x1="518" y1="463" x2="572" y2="382" stroke="#9fb4d6" stroke-width="1" stroke-opacity="0.22"/><line x1="639" y1="233" x2="652" y2="81" stroke="#9fb4d6" stroke-width="1" stroke-opacity="0.22"/><line x1="987" y1="195" x2="1093" y2="274" stroke="#9fb4d6" stroke-width="1" stroke-opacity="0.22"/><line x1="750" y1="236" x2="811" y2="347" stroke="#9fb4d6" stroke-width="1" stroke-opacity="0.22"/><line x1="410" y1="125" x2="332" y2="224" stroke="#9fb4d6" stroke-width="1" stroke-opacity="0.22"/><line x1="918" y1="399" x2="811" y2="347" stroke="#9fb4d6" stroke-width="1" stroke-opacity="0.22"/><line x1="1114" y1="73" x2="987" y2="195" stroke="#9fb4d6" stroke-width="1" stroke-opacity="0.22"/><line x1="399" y1="343" x2="332" y2="224" stroke="#9fb4d6" stroke-width="1" stroke-opacity="0.22"/><circle cx="410" cy="125" r="9" fill="#FF8347" fill-opacity="0.14"/><circle cx="410" cy="125" r="4" fill="#FF8347" fill-opacity="0.85"/><circle cx="763" cy="86" r="2.6" fill="#9fb4d6" fill-opacity="0.55"/><circle cx="639" cy="233" r="2.6" fill="#9fb4d6" fill-opacity="0.55"/><circle cx="123" cy="304" r="2.6" fill="#9fb4d6" fill-opacity="0.55"/><circle cx="135" cy="95" r="2.6" fill="#9fb4d6" fill-opacity="0.55"/><circle cx="518" cy="463" r="2.6" fill="#9fb4d6" fill-opacity="0.55"/><circle cx="738" cy="524" r="9" fill="#FF8347" fill-opacity="0.14"/><circle cx="738" cy="524" r="4" fill="#FF8347" fill-opacity="0.85"/><circle cx="1114" cy="73" r="2.6" fill="#9fb4d6" fill-opacity="0.55"/><circle cx="987" cy="195" r="2.6" fill="#9fb4d6" fill-opacity="0.55"/><circle cx="393" cy="458" r="2.6" fill="#9fb4d6" fill-opacity="0.55"/><circle cx="255" cy="341" r="2.6" fill="#9fb4d6" fill-opacity="0.55"/><circle cx="750" cy="236" r="2.6" fill="#9fb4d6" fill-opacity="0.55"/><circle cx="652" cy="81" r="9" fill="#FF8347" fill-opacity="0.14"/><circle cx="652" cy="81" r="4" fill="#FF8347" fill-opacity="0.85"/><circle cx="399" cy="343" r="2.6" fill="#9fb4d6" fill-opacity="0.55"/><circle cx="549" cy="200" r="2.6" fill="#9fb4d6" fill-opacity="0.55"/><circle cx="918" cy="399" r="2.6" fill="#9fb4d6" fill-opacity="0.55"/><circle cx="627" cy="488" r="2.6" fill="#9fb4d6" fill-opacity="0.55"/><circle cx="848" cy="194" r="2.6" fill="#9fb4d6" fill-opacity="0.55"/><circle cx="811" cy="347" r="9" fill="#FF8347" fill-opacity="0.14"/><circle cx="811" cy="347" r="4" fill="#FF8347" fill-opacity="0.85"/><circle cx="967" cy="522" r="2.6" fill="#9fb4d6" fill-opacity="0.55"/><circle cx="572" cy="382" r="2.6" fill="#9fb4d6" fill-opacity="0.55"/><circle cx="126" cy="401" r="2.6" fill="#9fb4d6" fill-opacity="0.55"/><circle cx="241" cy="109" r="2.6" fill="#9fb4d6" fill-opacity="0.55"/><circle cx="1089" cy="395" r="2.6" fill="#9fb4d6" fill-opacity="0.55"/><circle cx="332" cy="224" r="9" fill="#FF8347" fill-opacity="0.14"/><circle cx="332" cy="224" r="4" fill="#FF8347" fill-opacity="0.85"/><circle cx="85" cy="525" r="2.6" fill="#9fb4d6" fill-opacity="0.55"/><circle cx="240" cy="436" r="2.6" fill="#9fb4d6" fill-opacity="0.55"/><circle cx="90" cy="190" r="2.6" fill="#9fb4d6" fill-opacity="0.55"/><circle cx="1093" cy="274" r="2.6" fill="#9fb4d6" fill-opacity="0.55"/><circle cx="1072" cy="544" r="2.6" fill="#9fb4d6" fill-opacity="0.55"/></svg>