<svg xmlns="http://www.w3.org/2000/svg" viewBox="0 0 1200 600"><line x1="1098" y1="397" x2="1081" y2="549" stroke="#3A4254" stroke-width="1.1" stroke-opacity="0.28"/><line x1="740" y1="528" x2="815" y2="348" stroke="#3A4254" stroke-width="1.1" stroke-opacity="0.28"/><line x1="628" y1="491" x2="572" y2="384" stroke="#3A4254" stroke-width="1.1" stroke-opacity="0.28"/><line x1="114" y1="304" x2="127" y2="91" stroke="#3A4254" stroke-width="1.1" stroke-opacity="0.28"/><line x1="924" y1="401" x2="1081" y2="549" stroke="#3A4254" stroke-width="1.1" stroke-opacity="0.28"/><line x1="1124" y1="69" x2="1102" y2="273" stroke="#3A4254" stroke-width="1.1" stroke-opacity="0.28"/><line x1="114" y1="304" x2="249" y2="342" stroke="#3A4254" stroke-width="1.1" stroke-opacity="0.28"/><line x1="572" y1="384" x2="563" y2="292" stroke="#3A4254" stroke-width="1.1" stroke-opacity="0.28"/><line x1="1124" y1="69" x2="1086" y2="177" stroke="#3A4254" stroke-width="1.1" stroke-opacity="0.28"/><line x1="117" y1="403" x2="78" y2="491" stroke="#3A4254" stroke-width="1.1" stroke-opacity="0.28"/><line x1="1102" y1="273" x2="1086" y2="177" stroke="#3A4254" stroke-width="1.1" stroke-opacity="0.28"/><line x1="517" y1="467" x2="628" y2="491" stroke="#3A4254" stroke-width="1.1" stroke-opacity="0.28"/><line x1="114" y1="304" x2="78" y2="491" stroke="#3A4254" stroke-width="1.1" stroke-opacity="0.28"/><line x1="114" y1="304" x2="81" y2="188" stroke="#3A4254" stroke-width="1.1" stroke-opacity="0.28"/><line x1="852" y1="192" x2="815" y2="348" stroke="#3A4254" stroke-width="1.1" stroke-opacity="0.28"/><line x1="406" y1="122" x2="549" y2="198" stroke="#3A4254" stroke-width="1.1" stroke-opacity="0.28"/><line x1="639" y1="232" x2="753" y2="235" stroke="#3A4254" stroke-width="1.1" stroke-opacity="0.28"/><line x1="753" y1="235" x2="852" y2="192" stroke="#3A4254" stroke-width="1.1" stroke-opacity="0.28"/><line x1="406" y1="122" x2="356" y2="257" stroke="#3A4254" stroke-width="1.1" stroke-opacity="0.28"/><line x1="766" y1="82" x2="653" y2="77" stroke="#3A4254" stroke-width="1.1" stroke-opacity="0.28"/><line x1="639" y1="232" x2="549" y2="198" stroke="#3A4254" stroke-width="1.1" stroke-opacity="0.28"/><line x1="974" y1="527" x2="1081" y2="549" stroke="#3A4254" stroke-width="1.1" stroke-opacity="0.28"/><line x1="974" y1="527" x2="1098" y2="397" stroke="#3A4254" stroke-width="1.1" stroke-opacity="0.28"/><line x1="396" y1="344" x2="356" y2="257" stroke="#3A4254" stroke-width="1.1" stroke-opacity="0.28"/><line x1="639" y1="232" x2="563" y2="292" stroke="#3A4254" stroke-width="1.1" stroke-opacity="0.28"/><line x1="249" y1="342" x2="234" y2="439" stroke="#3A4254" stroke-width="1.1" stroke-opacity="0.28"/><line x1="249" y1="342" x2="292" y2="531" stroke="#3A4254" stroke-width="1.1" stroke-opacity="0.28"/><line x1="740" y1="528" x2="572" y2="384" stroke="#3A4254" stroke-width="1.1" stroke-opacity="0.28"/><line x1="1098" y1="397" x2="1102" y2="273" stroke="#3A4254" stroke-width="1.1" stroke-opacity="0.28"/><line x1="1102" y1="273" x2="974" y2="290" stroke="#3A4254" stroke-width="1.1" stroke-opacity="0.28"/><line x1="517" y1="467" x2="389" y2="461" stroke="#3A4254" stroke-width="1.1" stroke-opacity="0.28"/><line x1="117" y1="403" x2="234" y2="439" stroke="#3A4254" stroke-width="1.1" stroke-opacity="0.28"/><line x1="114" y1="304" x2="117" y2="403" stroke="#3A4254" stroke-width="1.1" stroke-opacity="0.28"/><line x1="235" y1="105" x2="81" y2="188" stroke="#3A4254" stroke-width="1.1" stroke-opacity="0.28"/><line x1="389" y1="461" x2="396" y2="344" stroke="#3A4254" stroke-width="1.1" stroke-opacity="0.28"/><line x1="994" y1="193" x2="852" y2="192" stroke="#3A4254" stroke-width="1.1" stroke-opacity="0.28"/><line x1="766" y1="82" x2="753" y2="235" stroke="#3A4254" stroke-width="1.1" stroke-opacity="0.28"/><line x1="249" y1="342" x2="356" y2="257" stroke="#3A4254" stroke-width="1.1" stroke-opacity="0.28"/><line x1="234" y1="439" x2="292" y2="531" stroke="#3A4254" stroke-width="1.1" stroke-opacity="0.28"/><line x1="406" y1="122" x2="235" y2="105" stroke="#3A4254" stroke-width="1.1" stroke-opacity="0.28"/><line x1="994" y1="193" x2="1102" y2="273" stroke="#3A4254" stroke-width="1.1" stroke-opacity="0.28"/><line x1="766" y1="82" x2="852" y2="192" stroke="#3A4254" stroke-width="1.1" stroke-opacity="0.28"/><line x1="994" y1="193" x2="1086" y2="177" stroke="#3A4254" stroke-width="1.1" stroke-opacity="0.28"/><line x1="924" y1="401" x2="974" y2="527" stroke="#3A4254" stroke-width="1.1" stroke-opacity="0.28"/><line x1="740" y1="528" x2="628" y2="491" stroke="#3A4254" stroke-width="1.1" stroke-opacity="0.28"/><line x1="78" y1="491" x2="234" y2="439" stroke="#3A4254" stroke-width="1.1" stroke-opacity="0.28"/><line x1="1098" y1="397" x2="974" y2="290" stroke="#3A4254" stroke-width="1.1" stroke-opacity="0.28"/><line x1="653" y1="77" x2="549" y2="198" stroke="#3A4254" stroke-width="1.1" stroke-opacity="0.28"/><line x1="924" y1="401" x2="974" y2="290" stroke="#3A4254" stroke-width="1.1" stroke-opacity="0.28"/><line x1="127" y1="91" x2="235" y2="105" stroke="#3A4254" stroke-width="1.1" stroke-opacity="0.28"/><line x1="127" y1="91" x2="81" y2="188" stroke="#3A4254" stroke-width="1.1" stroke-opacity="0.28"/><line x1="549" y1="198" x2="563" y2="292" stroke="#3A4254" stroke-width="1.1" stroke-opacity="0.28"/><line x1="249" y1="342" x2="396" y2="344" stroke="#3A4254" stroke-width="1.1" stroke-opacity="0.28"/><line x1="517" y1="467" x2="572" y2="384" stroke="#3A4254" stroke-width="1.1" stroke-opacity="0.28"/><line x1="639" y1="232" x2="653" y2="77" stroke="#3A4254" stroke-width="1.1" stroke-opacity="0.28"/><line x1="753" y1="235" x2="815" y2="348" stroke="#3A4254" stroke-width="1.1" stroke-opacity="0.28"/><line x1="389" y1="461" x2="292" y2="531" stroke="#3A4254" stroke-width="1.1" stroke-opacity="0.28"/><line x1="994" y1="193" x2="974" y2="290" stroke="#3A4254" stroke-width="1.1" stroke-opacity="0.28"/><line x1="924" y1="401" x2="815" y2="348" stroke="#3A4254" stroke-width="1.1" stroke-opacity="0.28"/><line x1="1124" y1="69" x2="994" y2="193" stroke="#3A4254" stroke-width="1.1" stroke-opacity="0.28"/><circle cx="406" cy="122" r="11" fill="#F4611A" fill-opacity="0.16"/><circle cx="406" cy="122" r="4.2" fill="#F4611A" fill-opacity="0.9"/><circle cx="766" cy="82" r="3.2" fill="#3A4254" fill-opacity="0.55"/><circle cx="639" cy="232" r="3.2" fill="#3A4254" fill-opacity="0.55"/><circle cx="114" cy="304" r="3.2" fill="#3A4254" fill-opacity="0.55"/><circle cx="127" cy="91" r="3.2" fill="#3A4254" fill-opacity="0.55"/><circle cx="517" cy="467" r="11" fill="#F4611A" fill-opacity="0.16"/><circle cx="517" cy="467" r="4.2" fill="#F4611A" fill-opacity="0.9"/><circle cx="740" cy="528" r="3.2" fill="#3A4254" fill-opacity="0.55"/><circle cx="1124" cy="69" r="3.2" fill="#3A4254" fill-opacity="0.55"/><circle cx="994" cy="193" r="3.2" fill="#3A4254" fill-opacity="0.55"/><circle cx="389" cy="461" r="3.2" fill="#3A4254" fill-opacity="0.55"/><circle cx="249" cy="342" r="11" fill="#F4611A" fill-opacity="0.16"/><circle cx="249" cy="342" r="4.2" fill="#F4611A" fill-opacity="0.9"/><circle cx="753" cy="235" r="3.2" fill="#3A4254" fill-opacity="0.55"/><circle cx="653" cy="77" r="3.2" fill="#3A4254" fill-opacity="0.55"/><circle cx="396" cy="344" r="3.2" fill="#3A4254" fill-opacity="0.55"/><circle cx="549" cy="198" r="3.2" fill="#3A4254" fill-opacity="0.55"/><circle cx="924" cy="401" r="11" fill="#F4611A" fill-opacity="0.16"/><circle cx="924" cy="401" r="4.2" fill="#F4611A" fill-opacity="0.9"/><circle cx="628" cy="491" r="3.2" fill="#3A4254" fill-opacity="0.55"/><circle cx="852" cy="192" r="3.2" fill="#3A4254" fill-opacity="0.55"/><circle cx="815" cy="348" r="3.2" fill="#3A4254" fill-opacity="0.55"/><circle cx="974" cy="527" r="3.2" fill="#3A4254" fill-opacity="0.55"/><circle cx="572" cy="384" r="11" fill="#F4611A" fill-opacity="0.16"/><circle cx="572" cy="384" r="4.2" fill="#F4611A" fill-opacity="0.9"/><circle cx="117" cy="403" r="3.2" fill="#3A4254" fill-opacity="0.55"/><circle cx="235" cy="105" r="3.2" fill="#3A4254" fill-opacity="0.55"/><circle cx="356" cy="257" r="3.2" fill="#3A4254" fill-opacity="0.55"/><circle cx="1098" cy="397" r="3.2" fill="#3A4254" fill-opacity="0.55"/><circle cx="78" cy="491" r="11" fill="#F4611A" fill-opacity="0.16"/><circle cx="78" cy="491" r="4.2" fill="#F4611A" fill-opacity="0.9"/><circle cx="563" cy="292" r="3.2" fill="#3A4254" fill-opacity="0.55"/><circle cx="234" cy="439" r="3.2" fill="#3A4254" fill-opacity="0.55"/><circle cx="81" cy="188" r="3.2" fill="#3A4254" fill-opacity="0.55"/><circle cx="1102" cy="273" r="3.2" fill="#3A4254" fill-opacity="0.55"/><circle cx="1081" cy="549" r="11" fill="#F4611A" fill-opacity="0.16"/><circle cx="1081" cy="549" r="4.2" fill="#F4611A" fill-opacity="0.9"/><circle cx="974" cy="290" r="3.2" fill="#3A4254" fill-opacity="0.55"/><circle cx="1086" cy="177" r="3.2" fill="#3A4254" fill-opacity="0.55"/><circle cx="292" cy="531" r="3.2" fill="#3A4254" fill-opacity="0.55"/></svg>