<svg xmlns="http://www.w3.org/2000/svg" viewBox="0 0 1200 560" fill="#9fb4d6"><circle cx="462" cy="33" r="2.3"/><circle cx="475" cy="33" r="2.3"/><circle cx="442" cy="46" r="2.3"/><circle cx="455" cy="46" r="2.3"/><circle cx="468" cy="46" r="2.3"/><circle cx="481" cy="46" r="2.3"/><circle cx="494" cy="46" r="2.3"/><circle cx="884" cy="46" r="2.3"/><circle cx="897" cy="46" r="2.3"/><circle cx="910" cy="46" r="2.3"/><circle cx="923" cy="46" r="2.3"/><circle cx="189" cy="59" r="2.3"/><circle cx="202" cy="59" r="2.3"/><circle cx="215" cy="59" r="2.3"/><circle cx="228" cy="59" r="2.3"/><circle cx="241" cy="59" r="2.3"/><circle cx="254" cy="59" r="2.3"/><circle cx="449" cy="59" r="2.3"/><circle cx="462" cy="59" r="2.3"/><circle cx="475" cy="59" r="2.3"/><circle cx="488" cy="59" r="2.3"/><circle cx="501" cy="59" r="2.3"/><circle cx="813" cy="59" r="2.3"/><circle cx="826" cy="59" r="2.3"/><circle cx="839" cy="59" r="2.3"/><circle cx="852" cy="59" r="2.3"/><circle cx="865" cy="59" r="2.3"/><circle cx="878" cy="59" r="2.3"/><circle cx="891" cy="59" r="2.3"/><circle cx="904" cy="59" r="2.3"/><circle cx="917" cy="59" r="2.3"/><circle cx="930" cy="59" r="2.3"/><circle cx="943" cy="59" r="2.3"/><circle cx="956" cy="59" r="2.3"/><circle cx="969" cy="59" r="2.3"/><circle cx="982" cy="59" r="2.3"/><circle cx="995" cy="59" r="2.3"/><circle cx="169" cy="72" r="2.3"/><circle cx="182" cy="72" r="2.3"/><circle cx="195" cy="72" r="2.3"/><circle cx="208" cy="72" r="2.3"/><circle cx="221" cy="72" r="2.3"/><circle cx="234" cy="72" r="2.3"/><circle cx="247" cy="72" r="2.3"/><circle cx="260" cy="72" r="2.3"/><circle cx="273" cy="72" r="2.3"/><circle cx="442" cy="72" r="2.3"/><circle cx="455" cy="72" r="2.3"/><circle cx="468" cy="72" r="2.3"/><circle cx="481" cy="72" r="2.3"/><circle cx="494" cy="72" r="2.3"/><circle cx="780" cy="72" r="2.3"/><circle cx="793" cy="72" r="2.3"/><circle cx="806" cy="72" r="2.3"/><circle cx="819" cy="72" r="2.3"/><circle cx="832" cy="72" r="2.3"/><circle cx="845" cy="72" r="2.3"/><circle cx="858" cy="72" r="2.3"/><circle cx="871" cy="72" r="2.3"/><circle cx="884" cy="72" r="2.3"/><circle cx="897" cy="72" r="2.3"/><circle cx="910" cy="72" r="2.3"/><circle cx="923" cy="72" r="2.3"/><circle cx="936" cy="72" r="2.3"/><circle cx="949" cy="72" r="2.3"/><circle cx="962" cy="72" r="2.3"/><circle cx="975" cy="72" r="2.3"/><circle cx="988" cy="72" r="2.3"/><circle cx="1001" cy="72" r="2.3"/><circle cx="1014" cy="72" r="2.3"/><circle cx="1027" cy="72" r="2.3"/><circle cx="163" cy="85" r="2.3"/><circle cx="176" cy="85" r="2.3"/><circle cx="189" cy="85" r="2.3"/><circle cx="202" cy="85" r="2.3"/><circle cx="215" cy="85" r="2.3"/><circle cx="228" cy="85" r="2.3"/><circle cx="241" cy="85" r="2.3"/><circle cx="254" cy="85" r="2.3"/><circle cx="267" cy="85" r="2.3"/><circle cx="280" cy="85" r="2.3"/><circle cx="293" cy="85" r="2.3"/><circle cx="306" cy="85" r="2.3"/><circle cx="319" cy="85" r="2.3"/><circle cx="332" cy="85" r="2.3"/><circle cx="462" cy="85" r="2.3"/><circle cx="475" cy="85" r="2.3"/><circle cx="488" cy="85" r="2.3"/><circle cx="644" cy="85" r="2.3"/><circle cx="657" cy="85" r="2.3"/><circle cx="748" cy="85" r="2.3"/><circle cx="761" cy="85" r="2.3"/><circle cx="774" cy="85" r="2.3"/><circle cx="787" cy="85" r="2.3"/><circle cx="800" cy="85" r="2.3"/><circle cx="813" cy="85" r="2.3"/><circle cx="826" cy="85" r="2.3"/><circle cx="839" cy="85" r="2.3"/><circle cx="852" cy="85" r="2.3"/><circle cx="865" cy="85" r="2.3"/><circle cx="878" cy="85" r="2.3"/><circle cx="891" cy="85" r="2.3"/><circle cx="904" cy="85" r="2.3"/><circle cx="917" cy="85" r="2.3"/><circle cx="930" cy="85" r="2.3"/><circle cx="943" cy="85" r="2.3"/><circle cx="956" cy="85" r="2.3"/><circle cx="969" cy="85" r="2.3"/><circle cx="982" cy="85" r="2.3"/><circle cx="995" cy="85" r="2.3"/><circle cx="1008" cy="85" r="2.3"/><circle cx="1021" cy="85" r="2.3"/><circle cx="1034" cy="85" r="2.3"/><circle cx="1047" cy="85" r="2.3"/><circle cx="143" cy="98" r="2.3"/><circle cx="156" cy="98" r="2.3"/><circle cx="169" cy="98" r="2.3"/><circle cx="182" cy="98" r="2.3"/><circle cx="195" cy="98" r="2.3"/><circle cx="208" cy="98" r="2.3"/><circle cx="221" cy="98" r="2.3"/><circle cx="234" cy="98" r="2.3"/><circle cx="247" cy="98" r="2.3"/><circle cx="260" cy="98" r="2.3"/><circle cx="273" cy="98" r="2.3"/><circle cx="286" cy="98" r="2.3"/><circle cx="299" cy="98" r="2.3"/><circle cx="312" cy="98" r="2.3"/><circle cx="325" cy="98" r="2.3"/><circle cx="338" cy="98" r="2.3"/><circle cx="351" cy="98" r="2.3"/><circle cx="611" cy="98" r="2.3"/><circle cx="624" cy="98" r="2.3"/><circle cx="637" cy="98" r="2.3"/><circle cx="650" cy="98" r="2.3"/><circle cx="663" cy="98" r="2.3"/><circle cx="676" cy="98" r="2.3"/><circle cx="689" cy="98" r="2.3"/><circle cx="741" cy="98" r="2.3"/><circle cx="754" cy="98" r="2.3"/><circle cx="767" cy="98" r="2.3"/><circle cx="780" cy="98" r="2.3"/><circle cx="793" cy="98" r="2.3"/><circle cx="806" cy="98" r="2.3"/><circle cx="819" cy="98" r="2.3"/><circle cx="832" cy="98" r="2.3"/><circle cx="845" cy="98" r="2.3"/><circle cx="858" cy="98" r="2.3"/><circle cx="871" cy="98" r="2.3"/><circle cx="884" cy="98" r="2.3"/><circle cx="897" cy="98" r="2.3"/><circle cx="910" cy="98" r="2.3"/><circle cx="923" cy="98" r="2.3"/><circle cx="936" cy="98" r="2.3"/><circle cx="949" cy="98" r="2.3"/><circle cx="962" cy="98" r="2.3"/><circle cx="975" cy="98" r="2.3"/><circle cx="988" cy="98" r="2.3"/><circle cx="1001" cy="98" r="2.3"/><circle cx="1014" cy="98" r="2.3"/><circle cx="1027" cy="98" r="2.3"/><circle cx="1040" cy="98" r="2.3"/><circle cx="1053" cy="98" r="2.3"/><circle cx="1066" cy="98" r="2.3"/><circle cx="111" cy="111" r="2.3"/><circle cx="124" cy="111" r="2.3"/><circle cx="137" cy="111" r="2.3"/><circle cx="150" cy="111" r="2.3"/><circle cx="163" cy="111" r="2.3"/><circle cx="176" cy="111" r="2.3"/><circle cx="189" cy="111" r="2.3"/><circle cx="202" cy="111" r="2.3"/><circle cx="215" cy="111" r="2.3"/><circle cx="228" cy="111" r="2.3"/><circle cx="241" cy="111" r="2.3"/><circle cx="254" cy="111" r="2.3"/><circle cx="267" cy="111" r="2.3"/><circle cx="280" cy="111" r="2.3"/><circle cx="293" cy="111" r="2.3"/><circle cx="306" cy="111" r="2.3"/><circle cx="319" cy="111" r="2.3"/><circle cx="332" cy="111" r="2.3"/><circle cx="345" cy="111" r="2.3"/><circle cx="358" cy="111" r="2.3"/><circle cx="371" cy="111" r="2.3"/><circle cx="605" cy="111" r="2.3"/><circle cx="618" cy="111" r="2.3"/><circle cx="631" cy="111" r="2.3"/><circle cx="644" cy="111" r="2.3"/><circle cx="657" cy="111" r="2.3"/><circle cx="670" cy="111" r="2.3"/><circle cx="683" cy="111" r="2.3"/><circle cx="696" cy="111" r="2.3"/><circle cx="722" cy="111" r="2.3"/><circle cx="735" cy="111" r="2.3"/><circle cx="748" cy="111" r="2.3"/><circle cx="761" cy="111" r="2.3"/><circle cx="774" cy="111" r="2.3"/><circle cx="787" cy="111" r="2.3"/><circle cx="800" cy="111" r="2.3"/><circle cx="813" cy="111" r="2.3"/><circle cx="826" cy="111" r="2.3"/><circle cx="839" cy="111" r="2.3"/><circle cx="852" cy="111" r="2.3"/><circle cx="865" cy="111" r="2.3"/><circle cx="878" cy="111" r="2.3"/><circle cx="891" cy="111" r="2.3"/><circle cx="904" cy="111" r="2.3"/><circle cx="917" cy="111" r="2.3"/><circle cx="930" cy="111" r="2.3"/><circle cx="943" cy="111" r="2.3"/><circle cx="956" cy="111" r="2.3"/><circle cx="969" cy="111" r="2.3"/><circle cx="982" cy="111" r="2.3"/><circle cx="995" cy="111" r="2.3"/><circle cx="1008" cy="111" r="2.3"/><circle cx="1021" cy="111" r="2.3"/><circle cx="1034" cy="111" r="2.3"/><circle cx="1047" cy="111" r="2.3"/><circle cx="1060" cy="111" r="2.3"/><circle cx="1073" cy="111" r="2.3"/><circle cx="104" cy="124" r="2.3"/><circle cx="117" cy="124" r="2.3"/><circle cx="130" cy="124" r="2.3"/><circle cx="143" cy="124" r="2.3"/><circle cx="156" cy="124" r="2.3"/><circle cx="169" cy="124" r="2.3"/><circle cx="182" cy="124" r="2.3"/><circle cx="195" cy="124" r="2.3"/><circle cx="208" cy="124" r="2.3"/><circle cx="221" cy="124" r="2.3"/><circle cx="234" cy="124" r="2.3"/><circle cx="247" cy="124" r="2.3"/><circle cx="260" cy="124" r="2.3"/><circle cx="273" cy="124" r="2.3"/><circle cx="286" cy="124" r="2.3"/><circle cx="299" cy="124" r="2.3"/><circle cx="312" cy="124" r="2.3"/><circle cx="325" cy="124" r="2.3"/><circle cx="338" cy="124" r="2.3"/><circle cx="351" cy="124" r="2.3"/><circle cx="364" cy="124" r="2.3"/><circle cx="377" cy="124" r="2.3"/><circle cx="598" cy="124" r="2.3"/><circle cx="611" cy="124" r="2.3"/><circle cx="624" cy="124" r="2.3"/><circle cx="637" cy="124" r="2.3"/><circle cx="650" cy="124" r="2.3"/><circle cx="663" cy="124" r="2.3"/><circle cx="676" cy="124" r="2.3"/><circle cx="689" cy="124" r="2.3"/><circle cx="702" cy="124" r="2.3"/><circle cx="715" cy="124" r="2.3"/><circle cx="728" cy="124" r="2.3"/><circle cx="741" cy="124" r="2.3"/><circle cx="754" cy="124" r="2.3"/><circle cx="767" cy="124" r="2.3"/><circle cx="780" cy="124" r="2.3"/><circle cx="793" cy="124" r="2.3"/><circle cx="806" cy="124" r="2.3"/><circle cx="819" cy="124" r="2.3"/><circle cx="832" cy="124" r="2.3"/><circle cx="845" cy="124" r="2.3"/><circle cx="858" cy="124" r="2.3"/><circle cx="871" cy="124" r="2.3"/><circle cx="884" cy="124" r="2.3"/><circle cx="897" cy="124" r="2.3"/><circle cx="910" cy="124" r="2.3"/><circle cx="923" cy="124" r="2.3"/><circle cx="936" cy="124" r="2.3"/><circle cx="949" cy="124" r="2.3"/><circle cx="962" cy="124" r="2.3"/><circle cx="975" cy="124" r="2.3"/><circle cx="988" cy="124" r="2.3"/><circle cx="1001" cy="124" r="2.3"/><circle cx="1014" cy="124" r="2.3"/><circle cx="1027" cy="124" r="2.3"/><circle cx="1040" cy="124" r="2.3"/><circle cx="1053" cy="124" r="2.3"/><circle cx="1066" cy="124" r="2.3"/><circle cx="1079" cy="124" r="2.3"/><circle cx="98" cy="137" r="2.3"/><circle cx="111" cy="137" r="2.3"/><circle cx="124" cy="137" r="2.3"/><circle cx="137" cy="137" r="2.3"/><circle cx="150" cy="137" r="2.3"/><circle cx="163" cy="137" r="2.3"/><circle cx="176" cy="137" r="2.3"/><circle cx="189" cy="137" r="2.3"/><circle cx="202" cy="137" r="2.3"/><circle cx="215" cy="137" r="2.3"/><circle cx="228" cy="137" r="2.3"/><circle cx="241" cy="137" r="2.3"/><circle cx="254" cy="137" r="2.3"/><circle cx="267" cy="137" r="2.3"/><circle cx="280" cy="137" r="2.3"/><circle cx="293" cy="137" r="2.3"/><circle cx="306" cy="137" r="2.3"/><circle cx="319" cy="137" r="2.3"/><circle cx="332" cy="137" r="2.3"/><circle cx="345" cy="137" r="2.3"/><circle cx="358" cy="137" r="2.3"/><circle cx="371" cy="137" r="2.3"/><circle cx="384" cy="137" r="2.3"/><circle cx="592" cy="137" r="2.3"/><circle cx="605" cy="137" r="2.3"/><circle cx="618" cy="137" r="2.3"/><circle cx="631" cy="137" r="2.3"/><circle cx="644" cy="137" r="2.3"/><circle cx="657" cy="137" r="2.3"/><circle cx="670" cy="137" r="2.3"/><circle cx="683" cy="137" r="2.3"/><circle cx="696" cy="137" r="2.3"/><circle cx="709" cy="137" r="2.3"/><circle cx="722" cy="137" r="2.3"/><circle cx="735" cy="137" r="2.3"/><circle cx="748" cy="137" r="2.3"/><circle cx="761" cy="137" r="2.3"/><circle cx="774" cy="137" r="2.3"/><circle cx="787" cy="137" r="2.3"/><circle cx="800" cy="137" r="2.3"/><circle cx="813" cy="137" r="2.3"/><circle cx="826" cy="137" r="2.3"/><circle cx="839" cy="137" r="2.3"/><circle cx="852" cy="137" r="2.3"/><circle cx="865" cy="137" r="2.3"/><circle cx="878" cy="137" r="2.3"/><circle cx="891" cy="137" r="2.3"/><circle cx="904" cy="137" r="2.3"/><circle cx="917" cy="137" r="2.3"/><circle cx="930" cy="137" r="2.3"/><circle cx="943" cy="137" r="2.3"/><circle cx="956" cy="137" r="2.3"/><circle cx="969" cy="137" r="2.3"/><circle cx="982" cy="137" r="2.3"/><circle cx="995" cy="137" r="2.3"/><circle cx="1008" cy="137" r="2.3"/><circle cx="1021" cy="137" r="2.3"/><circle cx="1034" cy="137" r="2.3"/><circle cx="1047" cy="137" r="2.3"/><circle cx="1060" cy="137" r="2.3"/><circle cx="1073" cy="137" r="2.3"/><circle cx="104" cy="150" r="2.3"/><circle cx="117" cy="150" r="2.3"/><circle cx="130" cy="150" r="2.3"/><circle cx="143" cy="150" r="2.3"/><circle cx="156" cy="150" r="2.3"/><circle cx="169" cy="150" r="2.3"/><circle cx="182" cy="150" r="2.3"/><circle cx="195" cy="150" r="2.3"/><circle cx="208" cy="150" r="2.3"/><circle cx="221" cy="150" r="2.3"/><circle cx="234" cy="150" r="2.3"/><circle cx="247" cy="150" r="2.3"/><circle cx="260" cy="150" r="2.3"/><circle cx="273" cy="150" r="2.3"/><circle cx="286" cy="150" r="2.3"/><circle cx="299" cy="150" r="2.3"/><circle cx="312" cy="150" r="2.3"/><circle cx="325" cy="150" r="2.3"/><circle cx="338" cy="150" r="2.3"/><circle cx="351" cy="150" r="2.3"/><circle cx="364" cy="150" r="2.3"/><circle cx="377" cy="150" r="2.3"/><circle cx="390" cy="150" r="2.3"/><circle cx="585" cy="150" r="2.3"/><circle cx="598" cy="150" r="2.3"/><circle cx="611" cy="150" r="2.3"/><circle cx="624" cy="150" r="2.3"/><circle cx="637" cy="150" r="2.3"/><circle cx="650" cy="150" r="2.3"/><circle cx="663" cy="150" r="2.3"/><circle cx="676" cy="150" r="2.3"/><circle cx="689" cy="150" r="2.3"/><circle cx="702" cy="150" r="2.3"/><circle cx="715" cy="150" r="2.3"/><circle cx="728" cy="150" r="2.3"/><circle cx="741" cy="150" r="2.3"/><circle cx="754" cy="150" r="2.3"/><circle cx="767" cy="150" r="2.3"/><circle cx="780" cy="150" r="2.3"/><circle cx="793" cy="150" r="2.3"/><circle cx="806" cy="150" r="2.3"/><circle cx="819" cy="150" r="2.3"/><circle cx="832" cy="150" r="2.3"/><circle cx="845" cy="150" r="2.3"/><circle cx="858" cy="150" r="2.3"/><circle cx="871" cy="150" r="2.3"/><circle cx="884" cy="150" r="2.3"/><circle cx="897" cy="150" r="2.3"/><circle cx="910" cy="150" r="2.3"/><circle cx="923" cy="150" r="2.3"/><circle cx="936" cy="150" r="2.3"/><circle cx="949" cy="150" r="2.3"/><circle cx="962" cy="150" r="2.3"/><circle cx="975" cy="150" r="2.3"/><circle cx="988" cy="150" r="2.3"/><circle cx="1001" cy="150" r="2.3"/><circle cx="1014" cy="150" r="2.3"/><circle cx="1027" cy="150" r="2.3"/><circle cx="1040" cy="150" r="2.3"/><circle cx="1053" cy="150" r="2.3"/><circle cx="1066" cy="150" r="2.3"/><circle cx="1079" cy="150" r="2.3"/><circle cx="111" cy="163" r="2.3"/><circle cx="124" cy="163" r="2.3"/><circle cx="137" cy="163" r="2.3"/><circle cx="150" cy="163" r="2.3"/><circle cx="163" cy="163" r="2.3"/><circle cx="176" cy="163" r="2.3"/><circle cx="189" cy="163" r="2.3"/><circle cx="202" cy="163" r="2.3"/><circle cx="215" cy="163" r="2.3"/><circle cx="228" cy="163" r="2.3"/><circle cx="241" cy="163" r="2.3"/><circle cx="254" cy="163" r="2.3"/><circle cx="267" cy="163" r="2.3"/><circle cx="280" cy="163" r="2.3"/><circle cx="293" cy="163" r="2.3"/><circle cx="306" cy="163" r="2.3"/><circle cx="319" cy="163" r="2.3"/><circle cx="332" cy="163" r="2.3"/><circle cx="345" cy="163" r="2.3"/><circle cx="358" cy="163" r="2.3"/><circle cx="371" cy="163" r="2.3"/><circle cx="384" cy="163" r="2.3"/><circle cx="592" cy="163" r="2.3"/><circle cx="605" cy="163" r="2.3"/><circle cx="618" cy="163" r="2.3"/><circle cx="631" cy="163" r="2.3"/><circle cx="644" cy="163" r="2.3"/><circle cx="657" cy="163" r="2.3"/><circle cx="670" cy="163" r="2.3"/><circle cx="683" cy="163" r="2.3"/><circle cx="696" cy="163" r="2.3"/><circle cx="709" cy="163" r="2.3"/><circle cx="722" cy="163" r="2.3"/><circle cx="735" cy="163" r="2.3"/><circle cx="748" cy="163" r="2.3"/><circle cx="761" cy="163" r="2.3"/><circle cx="774" cy="163" r="2.3"/><circle cx="787" cy="163" r="2.3"/><circle cx="800" cy="163" r="2.3"/><circle cx="813" cy="163" r="2.3"/><circle cx="826" cy="163" r="2.3"/><circle cx="839" cy="163" r="2.3"/><circle cx="852" cy="163" r="2.3"/><circle cx="865" cy="163" r="2.3"/><circle cx="878" cy="163" r="2.3"/><circle cx="891" cy="163" r="2.3"/><circle cx="904" cy="163" r="2.3"/><circle cx="917" cy="163" r="2.3"/><circle cx="930" cy="163" r="2.3"/><circle cx="943" cy="163" r="2.3"/><circle cx="956" cy="163" r="2.3"/><circle cx="969" cy="163" r="2.3"/><circle cx="982" cy="163" r="2.3"/><circle cx="995" cy="163" r="2.3"/><circle cx="1008" cy="163" r="2.3"/><circle cx="1021" cy="163" r="2.3"/><circle cx="1034" cy="163" r="2.3"/><circle cx="1047" cy="163" r="2.3"/><circle cx="1060" cy="163" r="2.3"/><circle cx="1073" cy="163" r="2.3"/><circle cx="117" cy="176" r="2.3"/><circle cx="130" cy="176" r="2.3"/><circle cx="143" cy="176" r="2.3"/><circle cx="156" cy="176" r="2.3"/><circle cx="169" cy="176" r="2.3"/><circle cx="182" cy="176" r="2.3"/><circle cx="195" cy="176" r="2.3"/><circle cx="208" cy="176" r="2.3"/><circle cx="221" cy="176" r="2.3"/><circle cx="234" cy="176" r="2.3"/><circle cx="247" cy="176" r="2.3"/><circle cx="260" cy="176" r="2.3"/><circle cx="273" cy="176" r="2.3"/><circle cx="286" cy="176" r="2.3"/><circle cx="299" cy="176" r="2.3"/><circle cx="312" cy="176" r="2.3"/><circle cx="325" cy="176" r="2.3"/><circle cx="338" cy="176" r="2.3"/><circle cx="351" cy="176" r="2.3"/><circle cx="364" cy="176" r="2.3"/><circle cx="377" cy="176" r="2.3"/><circle cx="611" cy="176" r="2.3"/><circle cx="689" cy="176" r="2.3"/><circle cx="702" cy="176" r="2.3"/><circle cx="715" cy="176" r="2.3"/><circle cx="728" cy="176" r="2.3"/><circle cx="741" cy="176" r="2.3"/><circle cx="754" cy="176" r="2.3"/><circle cx="767" cy="176" r="2.3"/><circle cx="780" cy="176" r="2.3"/><circle cx="793" cy="176" r="2.3"/><circle cx="806" cy="176" r="2.3"/><circle cx="819" cy="176" r="2.3"/><circle cx="832" cy="176" r="2.3"/><circle cx="845" cy="176" r="2.3"/><circle cx="858" cy="176" r="2.3"/><circle cx="871" cy="176" r="2.3"/><circle cx="884" cy="176" r="2.3"/><circle cx="897" cy="176" r="2.3"/><circle cx="910" cy="176" r="2.3"/><circle cx="923" cy="176" r="2.3"/><circle cx="936" cy="176" r="2.3"/><circle cx="949" cy="176" r="2.3"/><circle cx="962" cy="176" r="2.3"/><circle cx="975" cy="176" r="2.3"/><circle cx="988" cy="176" r="2.3"/><circle cx="1001" cy="176" r="2.3"/><circle cx="1014" cy="176" r="2.3"/><circle cx="1027" cy="176" r="2.3"/><circle cx="1040" cy="176" r="2.3"/><circle cx="1053" cy="176" r="2.3"/><circle cx="150" cy="189" r="2.3"/><circle cx="163" cy="189" r="2.3"/><circle cx="176" cy="189" r="2.3"/><circle cx="189" cy="189" r="2.3"/><circle cx="202" cy="189" r="2.3"/><circle cx="215" cy="189" r="2.3"/><circle cx="228" cy="189" r="2.3"/><circle cx="241" cy="189" r="2.3"/><circle cx="254" cy="189" r="2.3"/><circle cx="267" cy="189" r="2.3"/><circle cx="280" cy="189" r="2.3"/><circle cx="293" cy="189" r="2.3"/><circle cx="306" cy="189" r="2.3"/><circle cx="319" cy="189" r="2.3"/><circle cx="332" cy="189" r="2.3"/><circle cx="345" cy="189" r="2.3"/><circle cx="358" cy="189" r="2.3"/><circle cx="371" cy="189" r="2.3"/><circle cx="670" cy="189" r="2.3"/><circle cx="683" cy="189" r="2.3"/><circle cx="696" cy="189" r="2.3"/><circle cx="709" cy="189" r="2.3"/><circle cx="722" cy="189" r="2.3"/><circle cx="735" cy="189" r="2.3"/><circle cx="748" cy="189" r="2.3"/><circle cx="761" cy="189" r="2.3"/><circle cx="774" cy="189" r="2.3"/><circle cx="787" cy="189" r="2.3"/><circle cx="800" cy="189" r="2.3"/><circle cx="813" cy="189" r="2.3"/><circle cx="826" cy="189" r="2.3"/><circle cx="839" cy="189" r="2.3"/><circle cx="852" cy="189" r="2.3"/><circle cx="865" cy="189" r="2.3"/><circle cx="878" cy="189" r="2.3"/><circle cx="891" cy="189" r="2.3"/><circle cx="904" cy="189" r="2.3"/><circle cx="917" cy="189" r="2.3"/><circle cx="930" cy="189" r="2.3"/><circle cx="943" cy="189" r="2.3"/><circle cx="956" cy="189" r="2.3"/><circle cx="969" cy="189" r="2.3"/><circle cx="982" cy="189" r="2.3"/><circle cx="995" cy="189" r="2.3"/><circle cx="1008" cy="189" r="2.3"/><circle cx="1021" cy="189" r="2.3"/><circle cx="1034" cy="189" r="2.3"/><circle cx="1047" cy="189" r="2.3"/><circle cx="156" cy="202" r="2.3"/><circle cx="169" cy="202" r="2.3"/><circle cx="182" cy="202" r="2.3"/><circle cx="195" cy="202" r="2.3"/><circle cx="208" cy="202" r="2.3"/><circle cx="221" cy="202" r="2.3"/><circle cx="234" cy="202" r="2.3"/><circle cx="247" cy="202" r="2.3"/><circle cx="260" cy="202" r="2.3"/><circle cx="273" cy="202" r="2.3"/><circle cx="286" cy="202" r="2.3"/><circle cx="299" cy="202" r="2.3"/><circle cx="312" cy="202" r="2.3"/><circle cx="325" cy="202" r="2.3"/><circle cx="338" cy="202" r="2.3"/><circle cx="351" cy="202" r="2.3"/><circle cx="637" cy="202" r="2.3"/><circle cx="650" cy="202" r="2.3"/><circle cx="663" cy="202" r="2.3"/><circle cx="676" cy="202" r="2.3"/><circle cx="689" cy="202" r="2.3"/><circle cx="702" cy="202" r="2.3"/><circle cx="715" cy="202" r="2.3"/><circle cx="728" cy="202" r="2.3"/><circle cx="741" cy="202" r="2.3"/><circle cx="754" cy="202" r="2.3"/><circle cx="767" cy="202" r="2.3"/><circle cx="780" cy="202" r="2.3"/><circle cx="793" cy="202" r="2.3"/><circle cx="806" cy="202" r="2.3"/><circle cx="819" cy="202" r="2.3"/><circle cx="832" cy="202" r="2.3"/><circle cx="845" cy="202" r="2.3"/><circle cx="858" cy="202" r="2.3"/><circle cx="871" cy="202" r="2.3"/><circle cx="884" cy="202" r="2.3"/><circle cx="897" cy="202" r="2.3"/><circle cx="910" cy="202" r="2.3"/><circle cx="923" cy="202" r="2.3"/><circle cx="936" cy="202" r="2.3"/><circle cx="949" cy="202" r="2.3"/><circle cx="962" cy="202" r="2.3"/><circle cx="975" cy="202" r="2.3"/><circle cx="988" cy="202" r="2.3"/><circle cx="1001" cy="202" r="2.3"/><circle cx="1014" cy="202" r="2.3"/><circle cx="1027" cy="202" r="2.3"/><circle cx="1040" cy="202" r="2.3"/><circle cx="189" cy="215" r="2.3"/><circle cx="202" cy="215" r="2.3"/><circle cx="215" cy="215" r="2.3"/><circle cx="228" cy="215" r="2.3"/><circle cx="241" cy="215" r="2.3"/><circle cx="254" cy="215" r="2.3"/><circle cx="267" cy="215" r="2.3"/><circle cx="280" cy="215" r="2.3"/><circle cx="293" cy="215" r="2.3"/><circle cx="306" cy="215" r="2.3"/><circle cx="319" cy="215" r="2.3"/><circle cx="332" cy="215" r="2.3"/><circle cx="345" cy="215" r="2.3"/><circle cx="358" cy="215" r="2.3"/><circle cx="618" cy="215" r="2.3"/><circle cx="631" cy="215" r="2.3"/><circle cx="644" cy="215" r="2.3"/><circle cx="657" cy="215" r="2.3"/><circle cx="670" cy="215" r="2.3"/><circle cx="683" cy="215" r="2.3"/><circle cx="696" cy="215" r="2.3"/><circle cx="709" cy="215" r="2.3"/><circle cx="722" cy="215" r="2.3"/><circle cx="735" cy="215" r="2.3"/><circle cx="748" cy="215" r="2.3"/><circle cx="761" cy="215" r="2.3"/><circle cx="774" cy="215" r="2.3"/><circle cx="787" cy="215" r="2.3"/><circle cx="800" cy="215" r="2.3"/><circle cx="826" cy="215" r="2.3"/><circle cx="839" cy="215" r="2.3"/><circle cx="852" cy="215" r="2.3"/><circle cx="865" cy="215" r="2.3"/><circle cx="878" cy="215" r="2.3"/><circle cx="891" cy="215" r="2.3"/><circle cx="904" cy="215" r="2.3"/><circle cx="917" cy="215" r="2.3"/><circle cx="930" cy="215" r="2.3"/><circle cx="943" cy="215" r="2.3"/><circle cx="956" cy="215" r="2.3"/><circle cx="969" cy="215" r="2.3"/><circle cx="982" cy="215" r="2.3"/><circle cx="995" cy="215" r="2.3"/><circle cx="1008" cy="215" r="2.3"/><circle cx="1021" cy="215" r="2.3"/><circle cx="1034" cy="215" r="2.3"/><circle cx="234" cy="228" r="2.3"/><circle cx="247" cy="228" r="2.3"/><circle cx="260" cy="228" r="2.3"/><circle cx="273" cy="228" r="2.3"/><circle cx="286" cy="228" r="2.3"/><circle cx="299" cy="228" r="2.3"/><circle cx="312" cy="228" r="2.3"/><circle cx="325" cy="228" r="2.3"/><circle cx="338" cy="228" r="2.3"/><circle cx="351" cy="228" r="2.3"/><circle cx="611" cy="228" r="2.3"/><circle cx="624" cy="228" r="2.3"/><circle cx="637" cy="228" r="2.3"/><circle cx="650" cy="228" r="2.3"/><circle cx="663" cy="228" r="2.3"/><circle cx="676" cy="228" r="2.3"/><circle cx="689" cy="228" r="2.3"/><circle cx="702" cy="228" r="2.3"/><circle cx="715" cy="228" r="2.3"/><circle cx="728" cy="228" r="2.3"/><circle cx="845" cy="228" r="2.3"/><circle cx="858" cy="228" r="2.3"/><circle cx="871" cy="228" r="2.3"/><circle cx="884" cy="228" r="2.3"/><circle cx="897" cy="228" r="2.3"/><circle cx="910" cy="228" r="2.3"/><circle cx="923" cy="228" r="2.3"/><circle cx="962" cy="228" r="2.3"/><circle cx="975" cy="228" r="2.3"/><circle cx="988" cy="228" r="2.3"/><circle cx="1001" cy="228" r="2.3"/><circle cx="1014" cy="228" r="2.3"/><circle cx="1027" cy="228" r="2.3"/><circle cx="1040" cy="228" r="2.3"/><circle cx="267" cy="241" r="2.3"/><circle cx="280" cy="241" r="2.3"/><circle cx="293" cy="241" r="2.3"/><circle cx="306" cy="241" r="2.3"/><circle cx="319" cy="241" r="2.3"/><circle cx="332" cy="241" r="2.3"/><circle cx="345" cy="241" r="2.3"/><circle cx="605" cy="241" r="2.3"/><circle cx="618" cy="241" r="2.3"/><circle cx="631" cy="241" r="2.3"/><circle cx="644" cy="241" r="2.3"/><circle cx="657" cy="241" r="2.3"/><circle cx="670" cy="241" r="2.3"/><circle cx="683" cy="241" r="2.3"/><circle cx="696" cy="241" r="2.3"/><circle cx="709" cy="241" r="2.3"/><circle cx="722" cy="241" r="2.3"/><circle cx="839" cy="241" r="2.3"/><circle cx="852" cy="241" r="2.3"/><circle cx="865" cy="241" r="2.3"/><circle cx="878" cy="241" r="2.3"/><circle cx="891" cy="241" r="2.3"/><circle cx="904" cy="241" r="2.3"/><circle cx="917" cy="241" r="2.3"/><circle cx="930" cy="241" r="2.3"/><circle cx="982" cy="241" r="2.3"/><circle cx="995" cy="241" r="2.3"/><circle cx="1008" cy="241" r="2.3"/><circle cx="1021" cy="241" r="2.3"/><circle cx="286" cy="254" r="2.3"/><circle cx="299" cy="254" r="2.3"/><circle cx="312" cy="254" r="2.3"/><circle cx="325" cy="254" r="2.3"/><circle cx="403" cy="254" r="2.3"/><circle cx="416" cy="254" r="2.3"/><circle cx="429" cy="254" r="2.3"/><circle cx="598" cy="254" r="2.3"/><circle cx="611" cy="254" r="2.3"/><circle cx="624" cy="254" r="2.3"/><circle cx="637" cy="254" r="2.3"/><circle cx="650" cy="254" r="2.3"/><circle cx="663" cy="254" r="2.3"/><circle cx="676" cy="254" r="2.3"/><circle cx="689" cy="254" r="2.3"/><circle cx="702" cy="254" r="2.3"/><circle cx="715" cy="254" r="2.3"/><circle cx="728" cy="254" r="2.3"/><circle cx="845" cy="254" r="2.3"/><circle cx="858" cy="254" r="2.3"/><circle cx="871" cy="254" r="2.3"/><circle cx="884" cy="254" r="2.3"/><circle cx="897" cy="254" r="2.3"/><circle cx="910" cy="254" r="2.3"/><circle cx="923" cy="254" r="2.3"/><circle cx="936" cy="254" r="2.3"/><circle cx="397" cy="267" r="2.3"/><circle cx="410" cy="267" r="2.3"/><circle cx="423" cy="267" r="2.3"/><circle cx="436" cy="267" r="2.3"/><circle cx="449" cy="267" r="2.3"/><circle cx="605" cy="267" r="2.3"/><circle cx="618" cy="267" r="2.3"/><circle cx="631" cy="267" r="2.3"/><circle cx="644" cy="267" r="2.3"/><circle cx="657" cy="267" r="2.3"/><circle cx="670" cy="267" r="2.3"/><circle cx="683" cy="267" r="2.3"/><circle cx="696" cy="267" r="2.3"/><circle cx="709" cy="267" r="2.3"/><circle cx="722" cy="267" r="2.3"/><circle cx="839" cy="267" r="2.3"/><circle cx="852" cy="267" r="2.3"/><circle cx="865" cy="267" r="2.3"/><circle cx="878" cy="267" r="2.3"/><circle cx="891" cy="267" r="2.3"/><circle cx="904" cy="267" r="2.3"/><circle cx="917" cy="267" r="2.3"/><circle cx="930" cy="267" r="2.3"/><circle cx="969" cy="267" r="2.3"/><circle cx="982" cy="267" r="2.3"/><circle cx="995" cy="267" r="2.3"/><circle cx="1008" cy="267" r="2.3"/><circle cx="377" cy="280" r="2.3"/><circle cx="390" cy="280" r="2.3"/><circle cx="403" cy="280" r="2.3"/><circle cx="416" cy="280" r="2.3"/><circle cx="429" cy="280" r="2.3"/><circle cx="442" cy="280" r="2.3"/><circle cx="455" cy="280" r="2.3"/><circle cx="598" cy="280" r="2.3"/><circle cx="611" cy="280" r="2.3"/><circle cx="624" cy="280" r="2.3"/><circle cx="637" cy="280" r="2.3"/><circle cx="650" cy="280" r="2.3"/><circle cx="663" cy="280" r="2.3"/><circle cx="676" cy="280" r="2.3"/><circle cx="689" cy="280" r="2.3"/><circle cx="702" cy="280" r="2.3"/><circle cx="715" cy="280" r="2.3"/><circle cx="728" cy="280" r="2.3"/><circle cx="845" cy="280" r="2.3"/><circle cx="858" cy="280" r="2.3"/><circle cx="871" cy="280" r="2.3"/><circle cx="884" cy="280" r="2.3"/><circle cx="897" cy="280" r="2.3"/><circle cx="910" cy="280" r="2.3"/><circle cx="923" cy="280" r="2.3"/><circle cx="949" cy="280" r="2.3"/><circle cx="962" cy="280" r="2.3"/><circle cx="975" cy="280" r="2.3"/><circle cx="988" cy="280" r="2.3"/><circle cx="1001" cy="280" r="2.3"/><circle cx="1014" cy="280" r="2.3"/><circle cx="1027" cy="280" r="2.3"/><circle cx="371" cy="293" r="2.3"/><circle cx="384" cy="293" r="2.3"/><circle cx="397" cy="293" r="2.3"/><circle cx="410" cy="293" r="2.3"/><circle cx="423" cy="293" r="2.3"/><circle cx="436" cy="293" r="2.3"/><circle cx="449" cy="293" r="2.3"/><circle cx="605" cy="293" r="2.3"/><circle cx="618" cy="293" r="2.3"/><circle cx="631" cy="293" r="2.3"/><circle cx="644" cy="293" r="2.3"/><circle cx="657" cy="293" r="2.3"/><circle cx="670" cy="293" r="2.3"/><circle cx="683" cy="293" r="2.3"/><circle cx="696" cy="293" r="2.3"/><circle cx="709" cy="293" r="2.3"/><circle cx="722" cy="293" r="2.3"/><circle cx="865" cy="293" r="2.3"/><circle cx="878" cy="293" r="2.3"/><circle cx="891" cy="293" r="2.3"/><circle cx="904" cy="293" r="2.3"/><circle cx="943" cy="293" r="2.3"/><circle cx="956" cy="293" r="2.3"/><circle cx="969" cy="293" r="2.3"/><circle cx="982" cy="293" r="2.3"/><circle cx="995" cy="293" r="2.3"/><circle cx="1008" cy="293" r="2.3"/><circle cx="1021" cy="293" r="2.3"/><circle cx="1034" cy="293" r="2.3"/><circle cx="364" cy="306" r="2.3"/><circle cx="377" cy="306" r="2.3"/><circle cx="390" cy="306" r="2.3"/><circle cx="403" cy="306" r="2.3"/><circle cx="416" cy="306" r="2.3"/><circle cx="429" cy="306" r="2.3"/><circle cx="442" cy="306" r="2.3"/><circle cx="455" cy="306" r="2.3"/><circle cx="624" cy="306" r="2.3"/><circle cx="637" cy="306" r="2.3"/><circle cx="650" cy="306" r="2.3"/><circle cx="663" cy="306" r="2.3"/><circle cx="676" cy="306" r="2.3"/><circle cx="689" cy="306" r="2.3"/><circle cx="702" cy="306" r="2.3"/><circle cx="715" cy="306" r="2.3"/><circle cx="936" cy="306" r="2.3"/><circle cx="949" cy="306" r="2.3"/><circle cx="962" cy="306" r="2.3"/><circle cx="975" cy="306" r="2.3"/><circle cx="988" cy="306" r="2.3"/><circle cx="1001" cy="306" r="2.3"/><circle cx="1014" cy="306" r="2.3"/><circle cx="1027" cy="306" r="2.3"/><circle cx="358" cy="319" r="2.3"/><circle cx="371" cy="319" r="2.3"/><circle cx="384" cy="319" r="2.3"/><circle cx="397" cy="319" r="2.3"/><circle cx="410" cy="319" r="2.3"/><circle cx="423" cy="319" r="2.3"/><circle cx="436" cy="319" r="2.3"/><circle cx="449" cy="319" r="2.3"/><circle cx="631" cy="319" r="2.3"/><circle cx="644" cy="319" r="2.3"/><circle cx="657" cy="319" r="2.3"/><circle cx="670" cy="319" r="2.3"/><circle cx="683" cy="319" r="2.3"/><circle cx="696" cy="319" r="2.3"/><circle cx="709" cy="319" r="2.3"/><circle cx="722" cy="319" r="2.3"/><circle cx="943" cy="319" r="2.3"/><circle cx="956" cy="319" r="2.3"/><circle cx="969" cy="319" r="2.3"/><circle cx="982" cy="319" r="2.3"/><circle cx="995" cy="319" r="2.3"/><circle cx="1008" cy="319" r="2.3"/><circle cx="1021" cy="319" r="2.3"/><circle cx="351" cy="332" r="2.3"/><circle cx="364" cy="332" r="2.3"/><circle cx="377" cy="332" r="2.3"/><circle cx="390" cy="332" r="2.3"/><circle cx="403" cy="332" r="2.3"/><circle cx="416" cy="332" r="2.3"/><circle cx="429" cy="332" r="2.3"/><circle cx="442" cy="332" r="2.3"/><circle cx="624" cy="332" r="2.3"/><circle cx="637" cy="332" r="2.3"/><circle cx="650" cy="332" r="2.3"/><circle cx="663" cy="332" r="2.3"/><circle cx="676" cy="332" r="2.3"/><circle cx="689" cy="332" r="2.3"/><circle cx="702" cy="332" r="2.3"/><circle cx="715" cy="332" r="2.3"/><circle cx="728" cy="332" r="2.3"/><circle cx="962" cy="332" r="2.3"/><circle cx="975" cy="332" r="2.3"/><circle cx="988" cy="332" r="2.3"/><circle cx="1001" cy="332" r="2.3"/><circle cx="1027" cy="332" r="2.3"/><circle cx="1040" cy="332" r="2.3"/><circle cx="1053" cy="332" r="2.3"/><circle cx="1066" cy="332" r="2.3"/><circle cx="1079" cy="332" r="2.3"/><circle cx="358" cy="345" r="2.3"/><circle cx="371" cy="345" r="2.3"/><circle cx="384" cy="345" r="2.3"/><circle cx="397" cy="345" r="2.3"/><circle cx="410" cy="345" r="2.3"/><circle cx="423" cy="345" r="2.3"/><circle cx="436" cy="345" r="2.3"/><circle cx="449" cy="345" r="2.3"/><circle cx="631" cy="345" r="2.3"/><circle cx="644" cy="345" r="2.3"/><circle cx="657" cy="345" r="2.3"/><circle cx="670" cy="345" r="2.3"/><circle cx="683" cy="345" r="2.3"/><circle cx="696" cy="345" r="2.3"/><circle cx="709" cy="345" r="2.3"/><circle cx="722" cy="345" r="2.3"/><circle cx="1008" cy="345" r="2.3"/><circle cx="1021" cy="345" r="2.3"/><circle cx="1034" cy="345" r="2.3"/><circle cx="1047" cy="345" r="2.3"/><circle cx="1060" cy="345" r="2.3"/><circle cx="1073" cy="345" r="2.3"/><circle cx="1086" cy="345" r="2.3"/><circle cx="1099" cy="345" r="2.3"/><circle cx="364" cy="358" r="2.3"/><circle cx="377" cy="358" r="2.3"/><circle cx="390" cy="358" r="2.3"/><circle cx="403" cy="358" r="2.3"/><circle cx="416" cy="358" r="2.3"/><circle cx="429" cy="358" r="2.3"/><circle cx="442" cy="358" r="2.3"/><circle cx="624" cy="358" r="2.3"/><circle cx="637" cy="358" r="2.3"/><circle cx="650" cy="358" r="2.3"/><circle cx="663" cy="358" r="2.3"/><circle cx="676" cy="358" r="2.3"/><circle cx="689" cy="358" r="2.3"/><circle cx="702" cy="358" r="2.3"/><circle cx="715" cy="358" r="2.3"/><circle cx="1001" cy="358" r="2.3"/><circle cx="1014" cy="358" r="2.3"/><circle cx="1027" cy="358" r="2.3"/><circle cx="1040" cy="358" r="2.3"/><circle cx="1053" cy="358" r="2.3"/><circle cx="1066" cy="358" r="2.3"/><circle cx="1079" cy="358" r="2.3"/><circle cx="1092" cy="358" r="2.3"/><circle cx="1105" cy="358" r="2.3"/><circle cx="358" cy="371" r="2.3"/><circle cx="371" cy="371" r="2.3"/><circle cx="384" cy="371" r="2.3"/><circle cx="397" cy="371" r="2.3"/><circle cx="410" cy="371" r="2.3"/><circle cx="423" cy="371" r="2.3"/><circle cx="436" cy="371" r="2.3"/><circle cx="631" cy="371" r="2.3"/><circle cx="644" cy="371" r="2.3"/><circle cx="657" cy="371" r="2.3"/><circle cx="670" cy="371" r="2.3"/><circle cx="683" cy="371" r="2.3"/><circle cx="696" cy="371" r="2.3"/><circle cx="709" cy="371" r="2.3"/><circle cx="722" cy="371" r="2.3"/><circle cx="1008" cy="371" r="2.3"/><circle cx="1021" cy="371" r="2.3"/><circle cx="1034" cy="371" r="2.3"/><circle cx="1047" cy="371" r="2.3"/><circle cx="1060" cy="371" r="2.3"/><circle cx="1073" cy="371" r="2.3"/><circle cx="1086" cy="371" r="2.3"/><circle cx="1099" cy="371" r="2.3"/><circle cx="351" cy="384" r="2.3"/><circle cx="364" cy="384" r="2.3"/><circle cx="377" cy="384" r="2.3"/><circle cx="390" cy="384" r="2.3"/><circle cx="403" cy="384" r="2.3"/><circle cx="416" cy="384" r="2.3"/><circle cx="650" cy="384" r="2.3"/><circle cx="663" cy="384" r="2.3"/><circle cx="676" cy="384" r="2.3"/><circle cx="689" cy="384" r="2.3"/><circle cx="702" cy="384" r="2.3"/><circle cx="1014" cy="384" r="2.3"/><circle cx="1027" cy="384" r="2.3"/><circle cx="1040" cy="384" r="2.3"/><circle cx="1053" cy="384" r="2.3"/><circle cx="1066" cy="384" r="2.3"/><circle cx="1079" cy="384" r="2.3"/><circle cx="1092" cy="384" r="2.3"/><circle cx="345" cy="397" r="2.3"/><circle cx="358" cy="397" r="2.3"/><circle cx="371" cy="397" r="2.3"/><circle cx="384" cy="397" r="2.3"/><circle cx="397" cy="397" r="2.3"/><circle cx="410" cy="397" r="2.3"/><circle cx="670" cy="397" r="2.3"/><circle cx="683" cy="397" r="2.3"/><circle cx="1034" cy="397" r="2.3"/><circle cx="1047" cy="397" r="2.3"/><circle cx="1060" cy="397" r="2.3"/><circle cx="1073" cy="397" r="2.3"/><circle cx="1086" cy="397" r="2.3"/><circle cx="351" cy="410" r="2.3"/><circle cx="364" cy="410" r="2.3"/><circle cx="377" cy="410" r="2.3"/><circle cx="390" cy="410" r="2.3"/><circle cx="403" cy="410" r="2.3"/><circle cx="416" cy="410" r="2.3"/><circle cx="358" cy="423" r="2.3"/><circle cx="371" cy="423" r="2.3"/><circle cx="384" cy="423" r="2.3"/><circle cx="397" cy="423" r="2.3"/><circle cx="410" cy="423" r="2.3"/><circle cx="364" cy="436" r="2.3"/><circle cx="377" cy="436" r="2.3"/><circle cx="390" cy="436" r="2.3"/><circle cx="403" cy="436" r="2.3"/><circle cx="371" cy="449" r="2.3"/><circle cx="384" cy="449" r="2.3"/><circle cx="397" cy="449" r="2.3"/></svg>